<svg width="20" height="20" viewBox="0 0 20 20" fill="none" xmlns="http://www.w3.org/2000/svg">
<path d="M13.125 10.3176L12.625 10.3174V10.3176H13.125ZM2.5 6.71875L2 6.71582V6.71875H2.5ZM4.21875 5V4.49999L4.21582 4.50001L4.21875 5ZM7.89531 5L7.89607 4.5H7.89531V5ZM8.57852 5.2875L8.22154 5.6376L8.222 5.63807L8.57852 5.2875ZM12.8422 9.62344L13.1997 9.27385L13.1987 9.27287L12.8422 9.62344ZM8.3125 5C8.3125 4.72386 8.08864 4.5 7.8125 4.5C7.53636 4.5 7.3125 4.72386 7.3125 5H8.3125ZM7.8125 9.21875H7.31246L7.31254 9.22471L7.8125 9.21875ZM8.90625 10.3125L8.90029 10.8125H8.90625V10.3125ZM13.125 10.8125C13.4011 10.8125 13.625 10.5886 13.625 10.3125C13.625 10.0364 13.4011 9.8125 13.125 9.8125V10.8125ZM6.875 2.96875L6.375 2.96582V2.96875H6.875ZM8.59375 1.25V0.749991L8.59082 0.750009L8.59375 1.25ZM12.2656 1.25L12.2663 0.75H12.2656V1.25ZM12.9535 1.5375L13.31 1.18693L13.3088 1.18571L12.9535 1.5375ZM17.2172 5.87344L16.8607 6.22401L16.8615 6.22481L17.2172 5.87344ZM12.6875 1.25C12.6875 0.973858 12.4636 0.75 12.1875 0.75C11.9114 0.75 11.6875 0.973858 11.6875 1.25H12.6875ZM12.1875 5.46875H11.6875L11.6875 5.47471L12.1875 5.46875ZM13.2812 6.5625L13.2753 7.0625H13.2812V6.5625ZM12.625 10.3176V17.0312H13.625V10.3176H12.625ZM12.625 17.0312C12.625 17.7172 12.0921 18.25 11.4473 18.25V19.25C12.6697 19.25 13.625 18.2438 13.625 17.0312H12.625ZM11.4473 18.25H4.17969V19.25H11.4473V18.25ZM4.17969 18.25C3.53257 18.25 3 17.7168 3 17.0312H2C2 18.2442 2.95571 19.25 4.17969 19.25V18.25ZM3 17.0312V6.71875H2V17.0312H3ZM2.99999 6.72168C3.00189 6.39825 3.13121 6.08861 3.35991 5.85991L2.6528 5.1528C2.238 5.56761 2.00344 6.12921 2.00001 6.71582L2.99999 6.72168ZM3.35991 5.85991C3.58861 5.63121 3.89825 5.50189 4.22168 5.49999L4.21582 4.50001C3.62921 4.50344 3.0676 4.738 2.6528 5.1528L3.35991 5.85991ZM4.21875 5.5H7.89531V4.5H4.21875V5.5ZM7.89455 5.5C7.95546 5.50009 8.01574 5.51231 8.07188 5.53593L8.45975 4.61422C8.2813 4.53912 8.08968 4.50029 7.89607 4.5L7.89455 5.5ZM8.07188 5.53593C8.12802 5.55955 8.1789 5.59412 8.22154 5.6376L8.93549 4.9374C8.79992 4.79917 8.6382 4.68931 8.45975 4.61422L8.07188 5.53593ZM8.222 5.63807L12.4857 9.97401L13.1987 9.27287L8.93503 4.93693L8.222 5.63807ZM12.4847 9.97302C12.5747 10.065 12.6251 10.1886 12.625 10.3174L13.625 10.3178C13.6252 9.92759 13.4725 9.55284 13.1997 9.27386L12.4847 9.97302ZM7.3125 5V9.21875H8.3125V5H7.3125ZM7.31254 9.22471C7.31754 9.64426 7.48643 10.0452 7.78311 10.3419L8.49022 9.63478C8.37815 9.52272 8.31435 9.37126 8.31246 9.21279L7.31254 9.22471ZM7.78311 10.3419C8.07979 10.6386 8.48074 10.8075 8.90029 10.8125L8.91221 9.81254C8.75374 9.81065 8.60228 9.74685 8.49022 9.63478L7.78311 10.3419ZM8.90625 10.8125H13.125V9.8125H8.90625V10.8125ZM7.375 5V2.96875H6.375V5H7.375ZM7.37499 2.97168C7.37689 2.64825 7.50621 2.33861 7.73491 2.10991L7.0278 1.4028C6.613 1.8176 6.37844 2.37921 6.37501 2.96582L7.37499 2.97168ZM7.73491 2.10991C7.96361 1.88121 8.27325 1.75189 8.59668 1.74999L8.59082 0.750009C8.00421 0.753445 7.4426 0.987999 7.0278 1.4028L7.73491 2.10991ZM8.59375 1.75H12.2656V0.75H8.59375V1.75ZM12.2649 1.75C12.3269 1.75009 12.3883 1.76244 12.4455 1.78634L12.8311 0.863686C12.6522 0.788907 12.4602 0.75027 12.2663 0.75L12.2649 1.75ZM12.4455 1.78634C12.5027 1.81025 12.5546 1.84524 12.5982 1.88929L13.3088 1.18571C13.1724 1.04791 13.01 0.938465 12.8311 0.863686L12.4455 1.78634ZM12.597 1.88807L16.8607 6.22401L17.5737 5.52287L13.31 1.18693L12.597 1.88807ZM16.8615 6.22481C16.9503 6.31471 17 6.43598 17 6.56234L18 6.56266C18.0001 6.17311 17.8467 5.79921 17.5729 5.52206L16.8615 6.22481ZM17 6.5625V13.2812H18V6.5625H17ZM17 13.2812C17 13.9672 16.4671 14.5 15.8223 14.5V15.5C17.0447 15.5 18 14.4938 18 13.2812H17ZM15.8223 14.5H13.4375V15.5H15.8223V14.5ZM11.6875 1.25V5.46875H12.6875V1.25H11.6875ZM11.6875 5.47471C11.6925 5.89426 11.8614 6.29521 12.1581 6.59189L12.8652 5.88478C12.7531 5.77272 12.6894 5.62126 12.6875 5.46279L11.6875 5.47471ZM12.1581 6.59189C12.4548 6.88857 12.8557 7.05746 13.2753 7.06246L13.2872 6.06254C13.1287 6.06065 12.9773 5.99685 12.8652 5.88478L12.1581 6.59189ZM13.2812 7.0625H17.5V6.0625H13.2812V7.0625Z" fill="white"/>
</svg>
