<svg width="20" height="20" viewBox="0 0 20 20" fill="none" xmlns="http://www.w3.org/2000/svg">
<path d="M15.7031 6.5625L15.2044 6.52648L15.2044 6.52657L15.7031 6.5625ZM10.5469 6.5625L11.0456 6.52719L11.0456 6.52714L10.5469 6.5625ZM7.51799 15.602L8.00313 15.7229L8.00317 15.7228L7.51799 15.602ZM18.7324 15.602L18.2468 15.721L18.2469 15.7213L18.7324 15.602ZM7.81252 7.26328L7.31381 7.22735L7.31381 7.22735L7.81252 7.26328ZM3.67189 7.26328L3.17314 7.29856L3.17314 7.29859L3.67189 7.26328ZM7.83862 12.4077C8.08967 12.5227 8.38643 12.4124 8.50145 12.1614C8.61647 11.9103 8.5062 11.6136 8.25516 11.4986L7.83862 12.4077ZM1.26369 14.4824L0.778531 14.3615L0.77836 14.3622L1.26369 14.4824ZM6.01564 15.5C6.29178 15.5 6.51564 15.2761 6.51564 15C6.51564 14.7239 6.29178 14.5 6.01564 14.5V15.5ZM15.2044 6.52657C15.1039 7.92143 14.0851 8.875 13.125 8.875V9.875C14.7352 9.875 16.0734 8.38092 16.2018 6.59843L15.2044 6.52657ZM13.125 8.875C12.1644 8.875 11.1443 7.92131 11.0456 6.52719L10.0481 6.59781C10.1744 8.38181 11.5153 9.875 13.125 9.875V8.875ZM11.0456 6.52714C10.9961 5.82835 11.2134 5.26537 11.5762 4.87851C11.9403 4.49031 12.4785 4.25 13.125 4.25V3.25C12.2235 3.25 11.4141 3.58957 10.8468 4.19444C10.2783 4.80065 9.9805 5.64392 10.0481 6.59786L11.0456 6.52714ZM13.125 4.25C14.383 4.25 15.3007 5.19362 15.2044 6.52648L16.2018 6.59852C16.34 4.68607 14.9632 3.25 13.125 3.25V4.25ZM13.125 11.375C10.4478 11.375 7.7222 12.713 7.03281 15.4811L8.00317 15.7228C8.54034 13.5659 10.7108 12.375 13.125 12.375V11.375ZM7.03285 15.481C6.8902 16.0529 7.24793 16.75 7.9758 16.75V15.75C7.97429 15.75 7.97559 15.7498 7.97894 15.7507C7.98228 15.7515 7.98627 15.753 7.99036 15.7552C7.9989 15.7599 8.00297 15.765 8.00389 15.7663C8.00495 15.7679 7.99553 15.7534 8.00313 15.7229L7.03285 15.481ZM7.9758 16.75H18.2746V15.75H7.9758V16.75ZM18.2746 16.75C19.0042 16.75 19.3578 16.0515 19.218 15.4826L18.2469 15.7213C18.2546 15.7528 18.2449 15.768 18.2459 15.7667C18.2467 15.7654 18.2509 15.7601 18.2596 15.7554C18.2638 15.7531 18.2679 15.7516 18.2713 15.7507C18.2748 15.7498 18.2761 15.75 18.2746 15.75V16.75ZM19.2181 15.4829C18.5287 12.6705 15.798 11.375 13.125 11.375V12.375C15.5442 12.375 17.7096 13.5295 18.2468 15.721L19.2181 15.4829ZM7.31381 7.22735C7.23616 8.3052 6.44123 9.03125 5.7422 9.03125V10.0312C7.0963 10.0312 8.20606 8.75886 8.31122 7.29921L7.31381 7.22735ZM5.7422 9.03125C5.04267 9.03125 4.24689 8.30508 4.17064 7.22797L3.17314 7.29859C3.27658 8.75977 4.38861 10.0312 5.7422 10.0312V9.03125ZM4.17064 7.228C4.09786 6.19892 4.79398 5.5 5.7422 5.5V4.5C4.21699 4.5 3.05921 5.6878 3.17314 7.29856L4.17064 7.228ZM5.7422 5.5C6.68714 5.5 7.38641 6.2197 7.31381 7.22735L8.31122 7.29921C8.42534 5.71546 7.27071 4.5 5.7422 4.5V5.5ZM8.25516 11.4986C7.46664 11.1373 6.61415 11.0059 5.7422 11.0059V12.0059C6.51635 12.0059 7.21698 12.1229 7.83862 12.4077L8.25516 11.4986ZM5.7422 11.0059C3.57954 11.0059 1.34494 12.0891 0.778532 14.3615L1.74884 14.6033C2.16291 12.9421 3.84236 12.0059 5.7422 12.0059V11.0059ZM0.77836 14.3622C0.653053 14.868 0.969424 15.5 1.6297 15.5V14.5C1.64509 14.5 1.66703 14.5042 1.68953 14.5164C1.7111 14.5282 1.72605 14.5433 1.73522 14.5568C1.75276 14.5825 1.74959 14.6004 1.74902 14.6027L0.77836 14.3622ZM1.6297 15.5H6.01564V14.5H1.6297V15.5Z" fill="white"/>
</svg>
