<svg width="20" height="20" viewBox="0 0 20 20" fill="none" xmlns="http://www.w3.org/2000/svg">
<path d="M10.5 5C10.5 4.72386 10.2761 4.5 10 4.5C9.72386 4.5 9.5 4.72386 9.5 5H10.5ZM10 10.625H9.5C9.5 10.9011 9.72386 11.125 10 11.125V10.625ZM13.75 11.125C14.0261 11.125 14.25 10.9011 14.25 10.625C14.25 10.3489 14.0261 10.125 13.75 10.125V11.125ZM10 2C5.58323 2 2 5.58323 2 10H3C3 6.13552 6.13552 3 10 3V2ZM2 10C2 14.4168 5.58323 18 10 18V17C6.13552 17 3 13.8645 3 10H2ZM10 18C14.4168 18 18 14.4168 18 10H17C17 13.8645 13.8645 17 10 17V18ZM18 10C18 5.58323 14.4168 2 10 2V3C13.8645 3 17 6.13552 17 10H18ZM9.5 5V10.625H10.5V5H9.5ZM10 11.125H13.75V10.125H10V11.125Z" fill="white"/>
</svg>
